<svg height="512" viewBox="0 0 61 53" width="512" xmlns="http://www.w3.org/2000/svg"><g id="017---Peacock" fill="none"><g id="Icons" transform="translate(1 1)"><path id="Shape" d="m37 36c0 4.418278-3.581722 8-8 8s-8-3.581722-8-8c.0963761-1.1614708.437157-2.2894557 1-3.31 1-2 3.34-4.29 3.86-10.69l.34.21c1.6783618 1.0762046 3.8495986.9923885 5.44-.21 2.19 8.68 5.36 11.4 5.36 14z" fill="#02a9f4"/><path id="Shape" d="m31.64 22c-.7871689.6100682-1.7449186.9596119-2.74 1 .4495402 1.606213.9904203 3.1854495 1.62 4.73 1.78 4.51 3.48 6.32 3.48 8.27-.0038932 3.8368157-2.7312294 7.1305987-6.5 7.85 2.3407679.4468198 4.7588742-.1731562 6.5958944-1.691115 1.8370203-1.5179588 2.901688-3.7758541 2.9041056-6.158885 0-2.42-3.31-5.88-5.36-14z" fill="#0377bc"/><path id="Shape" d="m51.42 31.37-15.54 1.35c-.27-.52-.57-1.09-.88-1.72-.14-.27-.27-.55-.39-.82l12.85-9.11c-1.4259454 1.2698811-1.739383 3.3779586-.7445753 5.0077672s3.0130186 2.3146871 4.7942879 1.6269383c1.7812692-.6877487 2.8155681-2.5512024 2.4569912-4.42666-.3585769-1.8754575-2.0073587-3.2259214-3.9167038-3.2080455-.7024126-.0081216-1.3937898.1750934-2 .53l1.39-1c.9726713-.6657775 1.7688744-1.5580741 2.32-2.6 3.6360093.5105516 6.3119771 3.6653393 6.2225129 7.3359282s-2.9159482 6.691264-6.5725129 7.0240718z" fill="#60a917"/><path id="Shape" d="m48.55 20.4h-.1l-.37.26c.1508005-.0968713.3078056-.1837252.47-.26z" fill="#549414"/><path id="Shape" d="m57.75 22.3c-.7512021-2.8113386-3.1167003-4.8969196-6-5.29-.1507525.2912425-.3211459.5718906-.51.84 2.784792 1.5289563 4.2429501 4.6985552 3.5920665 7.8080768s-3.2578476 5.428211-6.4220665 5.7119232l-12.67 1.1.13.25 15.54-1.35c2.1257051-.190192 4.0587799-1.3098308 5.2814961-3.0590479 1.2227163-1.7492171 1.6101381-3.9492792 1.0585039-6.0109521z" fill="#549414"/><path id="Shape" d="m36 15h-2.16c-.459171-.0182755-.8716939.2787409-1 .72-.2275406.8218946-.7465275 1.5328356-1.46 2-.2738731.1883916-.4263702.5086354-.4.84.1147262 1.1643812.3356453 2.3158383.66 3.44-1.5819363 1.1994061-3.7421392 1.2910752-5.42.23l-.34-.23c.12-1 .12-2 .12-3 .0166689-1.8301944.1805307-3.6560826.49-5.46 0 0 0 0 0-.06.2063968-1.1579783 1.070462-2.08851 2.21-2.38.2405413-.0689034.4897979-.1025867.74-.1 1.6860705-.0006732 3.3576527.311265 4.93.92l1.93 1.08h.05c.5522847.0966498.9216498.6227153.825 1.175s-.6227153.9216498-1.175.825z" fill="#f5f5f5"/><path id="Shape" d="m36.35 13.06h-.05l-1.92-1.11c-1.5703945-.6189884-3.2420408-.9411109-4.93-.95-.2502021-.0025867-.4994587.0310966-.74.1l-.21.07c.9843546.1448339 1.9500342.396313 2.88.75l1.92 1.08h.05c.5522847.0966498.9216498.6227153.825 1.175-.0966499.5522847-.6227153.9216498-1.175.825h-2.16c-.459171-.0182755-.8716939.2787409-1 .72-.2275406.8218946-.7465275 1.5328356-1.46 2-.2738731.1883916-.4263702.5086354-.4.84.1147262 1.1643812.3356453 2.3158383.66 3.44-.4109945.3101776-.8705544.5500949-1.36.71 1.4812319.4999896 3.1139318.2341142 4.36-.71-.3152162-1.1117642-.5294189-2.2497162-.64-3.4-.0263702-.3313646.1261269-.6516084.4-.84.7134725-.4671644 1.2324594-1.1781054 1.46-2 .1283061-.4412591.540829-.7382755 1-.72h2.14c.3536929.0625215.7138735-.0683992.9448651-.3434456.2309917-.2750463.2977013-.6524321.175-.99-.1227012-.3375678-.4161722-.5840329-.7698651-.6465544z" fill="#cfd8dc"/><path id="Shape" d="m42.71 7c-.0428506.62729431-.2022386 1.24110794-.47 1.81l-8.72 18.86c-.7529-1.8457791-1.3809801-3.740042-1.88-5.67-.3152162-1.1117642-.5294189-2.2497162-.64-3.4-.0263702-.3313646.1261269-.6516084.4-.84.7134725-.4671644 1.2324594-1.1781054 1.46-2 .1283061-.4412591.540829-.7382755 1-.72h2.14c.4871536.0043532.9065524-.342981.9930481-.822414.0864956-.479433-.185086-.9514286-.6430481-1.117586h-.05c1.6363586-1.3011298 2.1611163-3.5578546 1.266703-5.44746649-.8944132-1.88961188-2.9724027-2.91437383-5.0160207-2.47365403-2.0436179.4407198-3.5145609 2.23083265-3.5506823 4.32112052.0099532-.16651807.0099532-.33348193 0-.5-.2689539-2.40559474-2.3926733-4.16744608-4.8065626-3.98755548-2.4138894.1798906-4.253003 2.23706468-4.1624214 4.65595228s2.0784012 4.3327521 4.498984 4.3316032c.6929983.0009749 1.3770631-.15636 2-.46-.3228803 1.8028312-.5001193 3.6287274-.53 5.46 0 1 0 2-.12 3-.1412362 2.0179141-.5723272 4.0049738-1.28 5.9l-8.08-17.48c-.4648581-1.00470093-.6907582-2.10339666-.66-3.21.0302529-3.26599066 2.2149085-6.11908576 5.36-7 2.96512-.71913264 6.0653225.47631819 7.78 3 2.1016836-2.8276632 5.8201701-3.92445364 9.12-2.69 2.65 1.04 4.8 3.67 4.59 6.48z" fill="#60a917"/><path id="Shape" d="m23.44 13.86c-.2780166 1.6995451-.4251157 3.4179299-.44 5.14 0 1 0 2-.12 3-.0466667.58-.1166667 1.16-.21 1.74l1.92 4.16c.7110882-1.8945168 1.1455502-3.8815911 1.29-5.9.12-1 .12-2 .12-3 .0166689-1.8301944.1805307-3.6560826.49-5.46-.9303021.4594269-1.9937208.5728583-3 .32z" fill="#549414"/><path id="Shape" d="m38.13.54c-1.341699-.49833583-2.794324-.61938791-4.2-.35.4079344.08750649.8089862.20447991 1.2.35 2.64 1 4.79 3.65 4.58 6.44-.0428506.62729431-.2022386 1.24110794-.47 1.81 0 0-1 2.13-2.28 4.94.1328654.4751554-.1006745.9762047-.55 1.18l-4.19 9.09c.35 1.13.77 2.36 1.3 3.67l8.72-18.88c.2653766-.56269921.4247077-1.16951331.47-1.79.21-2.81-1.94-5.44-4.58-6.46z" fill="#549414"/><path id="Shape" d="m50.49 8.55c-2.0429156-2.00853387-5.0811882-2.61697346-7.74-1.55-.0428506.62729431-.2022386 1.24110794-.47 1.81l-8.76 18.86c.32.82.69 1.66 1.09 2.51l12.85-9.11.62-.44 1.39-1c.9654015-.6778948 1.7513445-1.580528 2.29-2.63 1.4611721-2.7928246.9475734-6.2100756-1.27-8.45zm-5.84 9.8c-1.7594108 0-3.3455786-1.0598435-4.018876-2.6853271-.6732973-1.6254836-.3011298-3.4964961.9429615-4.7405874 1.2440913-1.24409128 3.1151038-1.61625882 4.7405874-.94296147 1.6254836.67329737 2.6853271 2.25946517 2.6853271 4.01887597 0 1.1536917-.4583023 2.2601313-1.2740855 3.0759145s-1.9222228 1.2740855-3.0759145 1.2740855z" fill="#60a917"/><path id="Shape" d="m44 6.64c2.1835909.48764288 4.0143793 1.9666527 4.9501048 3.9989623.9357256 2.0323097.8691141 4.3849293-.1801048 6.3610377-.92 1.83-2.17 2.56-3.68 3.62l-11.2 7.94c.23.54.46 1.08.72 1.62l12.85-9.11c2-1.41 3.33-2.13 4.3-4.06 1.2986983-2.4482657 1.0678919-5.4261313-.5925467-7.64504219-1.6604387-2.21891094-4.4522757-3.28032535-7.1674533-2.72495781z" fill="#549414"/><path id="Shape" d="m23.49 30.22c-.16.26-.32.52-.49.78-.3698889.5408864-.7039379 1.1054291-1 1.69l-15.42-1.35c-3.65128405-.3324826-6.47365272-3.3487847-6.5631126-7.0140837s2.58239651-6.8157 6.2131126-7.3259163c.5373162 1.0531121 1.32336013 1.9592937 2.29 2.64l1.59 1.12c-1.78524206-1.1707608-4.1781543-.7066805-5.39631709 1.0465592-1.21816278 1.7532397-.8183491 4.1577248.90162998 5.4224153 1.71997907 1.2646905 4.1343113.9294303 5.44462181-.7560537 1.3103106-1.685484 1.0398446-4.1079306-.6099347-5.4629208l13 9.21z" fill="#60a917"/><path id="Shape" d="m54 24.05c.0417105 1.8693299-1.2171643 3.518151-3.031432 3.9704416-1.8142677.4522907-3.6998115-.4126377-4.5404817-2.0827897-.8406701-1.670152-.4121432-3.6998667 1.0319137-4.8876519l.62-.44c.6062102-.3549066 1.2975874-.5381216 2-.53 2.1662195.0432753 3.9041823 1.803406 3.92 3.97z" fill="#ffdc00"/><path id="Shape" d="m50.05 20.1c-.5147975.0010451-1.0244004.1029657-1.5.3 1.4850988.6036461 2.4563895 2.0469071 2.4563895 3.65s-.9712907 3.0463539-2.4563895 3.65c1.4772046.6110898 3.1770989.2715477 4.3061971-.860133 1.1290983-1.1316808 1.464756-2.8323463.850293-4.308151-.614463-1.4758046-2.0578819-2.4357375-3.6564901-2.431716z" fill="#fec108"/><path id="Shape" d="m49 14c.0040442 1.7652689-1.0567506 3.3587808-2.6868758 4.0361894-1.6301251.6774087-3.5078615.3050216-4.7560983-.9432153-1.2482369-1.2482368-1.620624-3.1259732-.9432153-4.7560983.6774086-1.6301252 2.2709205-2.69091996 4.0361894-2.6868758 2.4024387 0 4.35 1.9475613 4.35 4.35z" fill="#ffdc00"/><path id="Shape" d="m44.65 9.65c-.5125115.00505455-1.0201788.09981912-1.5.28 1.7121617.621694 2.8521637 2.2484618 2.8521637 4.07s-1.140002 3.448306-2.8521637 4.07c1.6257169.5894989 3.4462611.1576111 4.6339512-1.0993124s1.5158498-3.0989929.8352864-4.6887406c-.6805634-1.5897478-2.239961-2.62376293-3.9692376-2.631947z" fill="#fec108"/><path id="Shape" d="m38 9.5c-.0112396 1.3630124-.6356245 2.6485107-1.7 3.5l-1.92-1.11c-1.5742929-.5984917-3.2458131-.9002469-4.93-.89-.2502021-.0025867-.4994587.0310966-.74.1.1930238-.5112983.2912945-1.0534815.29-1.6.0000001-2.48528132 2.0147187-4.49999987 4.5-4.49999987s4.4999999 2.01471855 4.5 4.49999987z" fill="#ffdc00"/><path id="Shape" d="m33.5 5c-.5114643.00670563-1.0183002.09793609-1.5.27 1.7973818.62909787 3.0006482 2.32570354 3 4.23-.0032518.8484695-.2421321 1.6793576-.69 2.4h.07l1.92 1.1c1.4792578-1.1953438 2.0473242-3.19158475 1.4190457-4.98666601-.6282784-1.79508125-2.3172289-3.00136631-4.2190457-3.01333399z" fill="#fec108"/><path id="Shape" d="m29 9.5c.0012945.5465185-.0969762 1.0887017-.29 1.6-1.139538.29149-2.0036032 1.2220217-2.21 2.38v.06c-.6229369.30364-1.3070017.4609749-2 .46-2.4166493-.0149694-4.3899638-1.9361021-4.4696777-4.35148271-.0797138-2.41538062 1.7626399-4.46244036 4.1730437-4.63671512 2.4104037-.17427477 4.5280659 1.58647157 4.796634 3.98819783.0099532.16651807.0099532.33348193 0 .5z" fill="#ffdc00"/><path id="Shape" d="m29 9c-.2545531-2.27679467-2.1790198-3.99891254-4.47-4-.5081184.00762108-1.0115161.0988408-1.49.27 1.6175593.57668574 2.7658784 2.02372297 2.96 3.73.0099532.16651807.0099532.33348193 0 .5.0012945.5465185-.0969762 1.0887017-.29 1.6-1.139538.29149-2.0036032 1.2220217-2.21 2.38v.06c-.1489076.0735583-.3025867.1370345-.46.19.4681622.1709437.9616659.2622081 1.46.27.6929983.0009749 1.3770631-.15636 2-.46 0 0 0 0 0-.06.2063968-1.1579783 1.070462-2.08851 2.21-2.38.1930238-.5112983.2912945-1.0534815.29-1.6.0099532-.16651807.0099532-.33348193 0-.5z" fill="#fec108"/><path id="Shape" d="m11.9 24.05c.0126135 1.8370376-1.2277029 3.4464931-3.00732522 3.9023558-1.77962231.4558626-3.64096552-.3590811-4.51309374-1.975948-.87212823-1.6168669-.53079571-3.6199206.82760968-4.856691 1.35840539-1.2367705 3.38460398-1.3892534 4.91280928-.3697168l.34.25c.9061214.7546981 1.433055 1.8707727 1.44 3.05z" fill="#ffdc00"/><path id="Shape" d="m10.46 21c-1.1201723-.9234459-2.65818857-1.1541483-4-.6 1.48509878.6036461 2.45638954 2.0469071 2.45638954 3.65s-.97129076 3.0463539-2.45638954 3.65c1.80380023.723642 3.8659869.0275818 4.8622655-1.6411848.9962785-1.6687666.630574-3.814314-.8622655-5.0588152z" fill="#fec108"/><path id="Shape" d="m24.59 27.9-8.07-17.48c-.4648581-1.00470093-.6907582-2.10339666-.66-3.21-2.7989765-1.42702008-6.20007352-.87439875-8.40325528 1.36538832-2.20318177 2.23978708-2.69968909 5.64952778-1.22674472 8.42461168.5373162 1.0531121 1.32336013 1.9592937 2.29 2.64l1.59 1.12.34.25 13 9.21c.4459272-.7406959.8305421-1.5166146 1.15-2.32zm-11.24-9.55c-2.4011292-.0055199-4.34367269-1.9555186-4.3399949-4.3566513s1.9521858-4.34517166 4.3533206-4.34333593c2.4011348.00183572 4.346668 1.94885173 4.3466743 4.34998723.0000031 1.1554264-.4596717 2.2633841-1.277619 3.0794554-.8179473.8160714-1.9269576 1.2732008-3.082381 1.2705446z" fill="#60a917"/><path id="Shape" d="m17.71 14c.0040467 1.7643598-1.0556636 3.3572405-2.6845595 4.0352376-1.6288958.6779971-3.5058474.3074464-4.754873-.9387145-1.24902555-1.2461608-1.62388516-3.1222566-.94963013-4.7527049.67425503-1.6304484 2.26469823-2.69381356 4.02906263-2.6938182 1.1554234-.00265615 2.2644337.4544732 3.082381 1.2705446.8179473.8160713 1.2776221 1.924029 1.277619 3.0794554z" fill="#ffdc00"/><path id="Shape" d="m13.35 9.65c-.5125115.00505455-1.0201788.09981912-1.5.28 1.7121617.621694 2.8521637 2.2484618 2.8521637 4.07s-1.140002 3.448306-2.8521637 4.07c1.6343842.6164157 3.4789703.1954117 4.6840608-1.069079 1.2050905-1.2644906 1.5369244-3.1271845.8426442-4.7300429-.6942801-1.6028584-2.2799991-2.63496181-4.026705-2.6208781z" fill="#fec108"/><g fill="#549414"><path id="Shape" d="m51.42 31.37c-1.3853508 3.3240228-4.7498598 5.3814563-8.34 5.1l-6.08-.47c-.1146482-1.1652366-.4980293-2.2879955-1.12-3.28z"/><path id="Shape" d="m22 32.69c-.562843 1.0205443-.9036239 2.1485292-1 3.31l-6.08.47c-3.5901402.2814563-6.95464917-1.7759772-8.34-5.1z"/></g></g><path id="Shape" d="m1.28 23c-.60761167 2.248567-.2327526 4.6493458 1.03141066 6.6056528 1.26416327 1.9563069 3.2989318 3.2844541 5.59858934 3.6543472 1.6682759 3.4426012 5.2763001 5.5105667 9.09 5.21l5.08-.39c.3554893 2.9591566 2.1528889 5.5504076 4.8 6.92l-.72 4.11c-.8691081.2732477-1.7178775.6074089-2.54 1-.332257.1357609-.5668475.4384662-.6154036.7940897-.0485561.3556234.0962991.7101374.38.93.2837009.2198625.6631466.2716712.9954036.1359103l2-.81c.6157493-.2697838 1.3355834-.1030426 1.77.41.1893508.3036758.5263272.4832663.8839935.4711216s.6816845-.2141795.85-.53c.1683155-.3158204.1553573-.6974458-.0339935-1.0011216-.3927376-.6081791-.9877723-1.0579969-1.68-1.27l.62-3.49c1.4475551.389769 2.9724449.389769 4.42 0l.62 3.49c-.6922277.2120031-1.2872624.6618209-1.68 1.27-.2927109.469442-.149442 1.087289.32 1.38.469442.2927109 1.0872891.149442 1.38-.32.4344166-.5130426 1.1542507-.6797838 1.77-.41l2 .81c.5136248.2098682 1.1001318-.0363752 1.31-.55s-.0363752-1.1001318-.55-1.31c-.8224618-.3918105-1.6711758-.7259499-2.54-1l-.72-4.11c2.6482644-1.3651726 4.4492754-3.9524878 4.81-6.91l5.08.39c3.8007187.2898718 7.3942025-1.7663775 9.07-5.19 3.8095567-.5788812 6.7039279-3.7292427 6.9586498-7.574102.2547219-3.8448592-2.1987543-7.3495156-5.8986498-8.425898.9755736-2.794894.3569264-5.8990901-1.6155661-8.10645269-1.9724926-2.20736258-4.9878419-3.16987282-7.8744339-2.51354731-.5410146-2.78605597-2.4974017-5.08746492-5.16-6.07-3.2938137-1.25452328-7.0178068-.44222975-9.49 2.07-2.0914133-2.29920714-5.3129051-3.20089286-8.2940079-2.32146752-2.9811029.87942534-5.1973784 3.38525241-5.7059921 6.45146752-2.9421776-.90507676-6.1433594-.08179386-8.28382375 2.13044153-2.14046439 2.21223537-2.85776085 5.43881947-1.85617625 8.34955847-2.72294988.8151745-4.83253665 2.97769-5.58 5.72zm15.56 13.47c-2.5269107.1979835-4.9733607-.9399002-6.45-3l12.16 1.06c-.1878919.4903938-.3350565.9954358-.44 1.51zm21-21.54c.18.1.63.07-2 .07-.8944768.0025595-1.6784939.5987392-1.92 1.46-.1567832.600062-.5310165 1.1204245-1.05 1.46-.5684482.3884738-.8971125 1.0420246-.87 1.73.0858853.9643007.2463657 1.9204963.48 2.86-1.1216555.5890839-2.4652822.5702656-3.57-.05-.0213502-2.6174036.1659092-5.2323467.56-7.82.1759347-.9621851 1.0219925-1.6559525 2-1.64 1.5370673.0009286 3.0614011.2786961 4.5.82.16.11 1.71 1 1.88 1.11zm.29-2.15c-1.29-.74-1.28-.75-1.4-.8-1.5672623-.6122601-3.2281185-.95052-4.91-1 .1006886-.1416415.1627272-.3070776.18-.48-.0079419-1.55635624 1.0127879-2.93098698 2.5049466-3.37344605 1.4921588-.44245908 3.0972315.15356141 3.9389678 1.46267859s.7178956 3.01679466-.3039144 4.19076746zm-8.77-1.2-1.5-3.05c-.2430053-.49705626-.8429437-.70300527-1.34-.45999998s-.7030053.84294371-.46 1.33999998l.94 1.88-.67-.23c-.3444764-.1556276-.7472657-.1037179-1.0410285.1341631-.2937627.2378811-.4282879.6210741-.3476868.9903807.0806011.3693067.3625518.6616039.7287153.7554562l2 .71v.13c-1.4344916.505526-3.0311823.0238357-3.9467757-1.1906647-.9155934-1.2145005-.9392195-2.88210014-.0584002-4.12205174.8808192-1.2399516 2.4632229-1.76668251 3.9114602-1.30199838s2.4287654 1.81376214 2.4237157 3.33471482c.0010253.2574695.1013193.5046225.28.69-.3195157.0884165-.6256186.2196035-.91.39zm1.64 32.42c-3.8659932 0-7-3.1340068-7-7 .1201892-1.0022052.4289552-1.9726125.91-2.86 1-2.07 3.05-4.07 3.81-9.59 1.3809646.5411884 2.9202243.5124172 4.28-.08 2.19 7.6 5 10.61 5 12.53 0 3.8659932-3.1340068 7-7 7zm14.16-7.53-5.26-.4c-.1102566-.5093495-.2745188-1.0054883-.49-1.48l12.19-1.06c-1.4923015 2.0295888-3.9289439 3.141969-6.44 2.94zm13.62-12.91c.4769468 1.7739557.1453671 3.6680125-.9058546 5.1744421-1.0512216 1.5064296-2.7145642 2.4711512-4.5441454 2.6355579l-14.87 1.29c-.18-.35-.37-.71-.56-1.1 0-.1-.47.26 9.21-6.6-.0603657 2.578047 1.8686334 4.7705498 4.4333778 5.0389828s4.9059133-1.4771425 5.380659-4.0118194c.4747457-2.5346768-1.075996-5.0092083-3.5640368-5.6871634.3332097-.3572056.6312516-.7456646.89-1.16 2.2060123.5316428 3.9443 2.2277204 4.53 4.42zm-3.78 1.49c.0014137 1.3709361-.9448831 2.5608789-2.2809286 2.8682065s-2.7071613-.3495459-3.3049012-1.5833104c-.5977398-1.2337645-.2634224-2.7168941.8058298-3.5748961.8837401-.6990197 2.0884816-.833569 3.1046612-.3467382s1.6662828 1.5099981 1.6753388 2.6367382zm-3.22-14.79c1.2984682 1.3210457 1.9486311 3.1472673 1.7771051 4.9916535-.171526 1.8443861-1.1472999 3.5193973-2.6671051 4.5783465l-13.89 9.83c-.14-.32-.28-.64-.41-1l5.24-11.35c1.1611849 2.3748637 3.8828267 3.5455988 6.4054985 2.7553744 2.5226719-.7902243 4.0899961-3.3044736 3.6887636-5.9173915-.4012325-2.612918-2.6507193-4.54106826-5.2942621-4.5379829-1.84 0-1.37.82-1-.89 2.1773565-.65059406 4.5361886-.05992717 6.15 1.54zm-5.13 1.39c1.8488421.005519 3.3436699 1.5078001 3.3399934 3.3566468-.0036766 1.8488467-1.5044673 3.3451708-3.3533168 3.3433366-1.8488494-.0018341-3.3466684-1.501133-3.3466766-3.3499834-.000004-.8902106.3543138-1.7438152.9847252-2.3723503.6304113-.6285351 1.4850682-.980307 2.3752748-.9776497zm-27.18-6.05c.9168372-2.02698751 2.8614255-3.39679927 5.0787622-3.5775943 2.2173367-.18079502 4.3581449.85590568 5.5912378 2.7075943.1693941.29136437.4741587.477802.8106979.49593884.3365392.01813685.6595755-.1344672.8593021-.40593884 1.8444518-2.47938579 5.1076438-3.43794844 8-2.35 2.8 1.09 4.84 4.14 3.56 6.91-.06.14-5.43 11.76-7.71 16.7-.7538462-2.1070368-1.309585-4.2797744-1.66-6.49.909799-.6088873 1.5645193-1.5304773 1.84-2.59h2.16c.7159506.0028489 1.3788125-.3772235 1.7380207-.996548s.3599631-1.383419.0019793-2.003452c1.3005396-1.5527623 1.642399-3.6946706.8898175-5.57512136-.7525814-1.88045074-2.4777965-3.19508835-4.4905206-3.42183838-2.0127241-.22675002-3.9871928.67108758-5.1392969 2.33695974-1.5537538-2.21738491-4.490204-2.97411145-6.9221154-1.78383699-2.4319115 1.19027447-3.6357947 3.97344536-2.8379227 6.56078899.797872 2.5873436 3.3601337 4.2091296 6.0400381 3.823048-.53 4.19 0 6.25-.88 10.15l-6.97-15.09c-.7825235-1.71806361-.767889-3.69371723.04-5.4zm-.76 9.4c.0040473 1.3598958-.8120193 2.5881395-2.0672395 3.1113559-1.2552201.5232165-2.7020531.2382227-3.665081-.721939-.9630278-.9601616-1.2523327-2.4061388-.73286-3.6629129.5194728-1.256774 1.7452786-2.076498 3.1051805-2.076504.8902066-.0026573 1.7448635.3491146 2.3752748.9776497.6304114.6285351.9847292 1.4821397.9847252 2.3723503zm-8.49-4.76c1.7562897-1.73008839 4.3686348-2.2596178 6.66-1.35.0199411.33595888.0633807.67010929.13 1-2.7131978-.88874426-5.6455219.5139061-6.6563745 3.1840157-1.01085267 2.6701097.257397 5.6630172 2.8789261 6.7938989 2.6215291 1.1308818 5.6688638-.0003584 6.9174484-2.5679146l5.35 11.62c-.12.27-.24.55-.37.83l-14-9.94c-1.52265618-1.0557365-2.5023819-2.7291069-2.67777626-4.5736388-.17539437-1.844532.47138703-3.672565 1.76777626-4.9963612zm-.22 17.76c-1.26758791.0034224-2.39565816-.8033147-2.8021601-2.0039591-.40650195-1.2006444-.00054964-2.5267553 1.00839762-3.2940989s2.39530848-.8043569 3.44376248-.091942c1.0700361.7270797 1.5415052 2.0664959 1.162825 3.3035179-.3786802 1.2370219-1.5191443 2.0829892-2.812825 2.0864821zm-2.2-8.88c.26523244.418675.5663665.8134953.9 1.18-2.46730999.6785907-4.00799543 3.128986-3.55033186 5.6466531.45766357 2.5176672 2.76215754 4.2690826 5.31044046 4.0359348 2.548283-.2331478 4.4966953-2.3736706 4.4898914-4.9325879 0-.15-1.09-.88 9.24 6.44-.26.4-.49.78-.7 1.14l-14.82-1.28c-3.02040401-.281902-5.39690527-2.7015203-5.62445926-5.7265043s1.76021992-5.7729043 4.70445926-6.5034957z" fill="#000" transform="translate(-1)"/></g></svg>